<mxfile host="app.diagrams.net" agent="Mozilla/5.0 (Macintosh; Intel Mac OS X 10_15_7) AppleWebKit/537.36 (KHTML, like Gecko) Chrome/137.0.0.0 Safari/537.36" version="27.2.0">
  <diagram name="第 1 页" id="w3Xznffj2VE_VyX7rNSw">
    <mxGraphModel dx="946" dy="610" grid="1" gridSize="10" guides="1" tooltips="1" connect="1" arrows="1" fold="1" page="1" pageScale="1" pageWidth="827" pageHeight="1169" math="0" shadow="0">
      <root>
        <mxCell id="0" />
        <mxCell id="1" parent="0" />
        <mxCell id="_SNrM67lIP2ubuZ2T2kI-1" value="" style="edgeStyle=orthogonalEdgeStyle;rounded=0;orthogonalLoop=1;jettySize=auto;html=1;" edge="1" parent="1" source="_SNrM67lIP2ubuZ2T2kI-3" target="_SNrM67lIP2ubuZ2T2kI-5">
          <mxGeometry relative="1" as="geometry" />
        </mxCell>
        <mxCell id="_SNrM67lIP2ubuZ2T2kI-2" value="" style="edgeStyle=orthogonalEdgeStyle;rounded=0;orthogonalLoop=1;jettySize=auto;html=1;" edge="1" parent="1" source="_SNrM67lIP2ubuZ2T2kI-3" target="_SNrM67lIP2ubuZ2T2kI-20">
          <mxGeometry relative="1" as="geometry" />
        </mxCell>
        <mxCell id="_SNrM67lIP2ubuZ2T2kI-3" value="提问" style="rounded=0;whiteSpace=wrap;html=1;" vertex="1" parent="1">
          <mxGeometry x="90" y="107" width="120" height="60" as="geometry" />
        </mxCell>
        <mxCell id="_SNrM67lIP2ubuZ2T2kI-4" value="" style="edgeStyle=orthogonalEdgeStyle;rounded=0;orthogonalLoop=1;jettySize=auto;html=1;" edge="1" parent="1" source="_SNrM67lIP2ubuZ2T2kI-5" target="_SNrM67lIP2ubuZ2T2kI-7">
          <mxGeometry relative="1" as="geometry" />
        </mxCell>
        <mxCell id="_SNrM67lIP2ubuZ2T2kI-5" value="问数据集" style="rhombus;whiteSpace=wrap;html=1;rounded=0;" vertex="1" parent="1">
          <mxGeometry x="270" y="97" width="80" height="80" as="geometry" />
        </mxCell>
        <mxCell id="_SNrM67lIP2ubuZ2T2kI-6" value="" style="edgeStyle=orthogonalEdgeStyle;rounded=0;orthogonalLoop=1;jettySize=auto;html=1;" edge="1" parent="1" source="_SNrM67lIP2ubuZ2T2kI-7" target="_SNrM67lIP2ubuZ2T2kI-10">
          <mxGeometry relative="1" as="geometry" />
        </mxCell>
        <mxCell id="_SNrM67lIP2ubuZ2T2kI-7" value="实体提取" style="whiteSpace=wrap;html=1;rounded=0;" vertex="1" parent="1">
          <mxGeometry x="410" y="107" width="120" height="60" as="geometry" />
        </mxCell>
        <mxCell id="_SNrM67lIP2ubuZ2T2kI-8" value="&lt;b&gt;问题&lt;/b&gt;：三月份一工厂的平均工作电压：&lt;div&gt;&lt;b&gt;实体：&lt;/b&gt; 一工厂/平均工作电压&lt;/div&gt;&lt;div&gt;&lt;b&gt;模拟实体：&lt;/b&gt;&amp;nbsp;dics_质量域指标表&lt;/div&gt;" style="text;html=1;align=left;verticalAlign=middle;resizable=0;points=[];autosize=1;strokeColor=none;fillColor=none;" vertex="1" parent="1">
          <mxGeometry x="370" y="10" width="230" height="60" as="geometry" />
        </mxCell>
        <mxCell id="_SNrM67lIP2ubuZ2T2kI-9" value="没有精确召回表" style="edgeStyle=orthogonalEdgeStyle;rounded=0;orthogonalLoop=1;jettySize=auto;html=1;" edge="1" parent="1" source="_SNrM67lIP2ubuZ2T2kI-10" target="_SNrM67lIP2ubuZ2T2kI-14">
          <mxGeometry relative="1" as="geometry" />
        </mxCell>
        <mxCell id="_SNrM67lIP2ubuZ2T2kI-10" value="实体召回表" style="whiteSpace=wrap;html=1;rounded=0;" vertex="1" parent="1">
          <mxGeometry x="410" y="227" width="120" height="60" as="geometry" />
        </mxCell>
        <mxCell id="_SNrM67lIP2ubuZ2T2kI-11" value="精确召回表：&lt;div&gt;召回一个带分数的表：[0.6,.0.8]&lt;/div&gt;" style="text;html=1;align=left;verticalAlign=middle;resizable=0;points=[];autosize=1;strokeColor=none;fillColor=none;" vertex="1" parent="1">
          <mxGeometry x="590" y="237" width="190" height="40" as="geometry" />
        </mxCell>
        <mxCell id="_SNrM67lIP2ubuZ2T2kI-12" value="" style="edgeStyle=orthogonalEdgeStyle;rounded=0;orthogonalLoop=1;jettySize=auto;html=1;" edge="1" parent="1" source="_SNrM67lIP2ubuZ2T2kI-14" target="_SNrM67lIP2ubuZ2T2kI-18">
          <mxGeometry relative="1" as="geometry" />
        </mxCell>
        <mxCell id="_SNrM67lIP2ubuZ2T2kI-13" value="没有精确召回字段" style="edgeLabel;html=1;align=center;verticalAlign=middle;resizable=0;points=[];" vertex="1" connectable="0" parent="_SNrM67lIP2ubuZ2T2kI-12">
          <mxGeometry x="-0.15" y="-2" relative="1" as="geometry">
            <mxPoint as="offset" />
          </mxGeometry>
        </mxCell>
        <mxCell id="_SNrM67lIP2ubuZ2T2kI-14" value="实体召回字段" style="whiteSpace=wrap;html=1;rounded=0;" vertex="1" parent="1">
          <mxGeometry x="410" y="367" width="120" height="60" as="geometry" />
        </mxCell>
        <mxCell id="_SNrM67lIP2ubuZ2T2kI-15" value="精确召回字段：&lt;div&gt;召回一个带分数的表：[0.6,.0.8]&lt;/div&gt;" style="text;html=1;align=left;verticalAlign=middle;resizable=0;points=[];autosize=1;strokeColor=none;fillColor=none;" vertex="1" parent="1">
          <mxGeometry x="590" y="387" width="190" height="40" as="geometry" />
        </mxCell>
        <mxCell id="_SNrM67lIP2ubuZ2T2kI-16" value="" style="edgeStyle=orthogonalEdgeStyle;rounded=0;orthogonalLoop=1;jettySize=auto;html=1;" edge="1" parent="1" source="_SNrM67lIP2ubuZ2T2kI-18" target="_SNrM67lIP2ubuZ2T2kI-19">
          <mxGeometry relative="1" as="geometry" />
        </mxCell>
        <mxCell id="_SNrM67lIP2ubuZ2T2kI-17" value="低分召回" style="edgeLabel;html=1;align=center;verticalAlign=middle;resizable=0;points=[];" vertex="1" connectable="0" parent="_SNrM67lIP2ubuZ2T2kI-16">
          <mxGeometry x="-0.3333" y="1" relative="1" as="geometry">
            <mxPoint x="-1" y="10" as="offset" />
          </mxGeometry>
        </mxCell>
        <mxCell id="_SNrM67lIP2ubuZ2T2kI-18" value="召回到分数的表和字分数排序取最高分进行问" style="whiteSpace=wrap;html=1;rounded=0;" vertex="1" parent="1">
          <mxGeometry x="410" y="507" width="120" height="60" as="geometry" />
        </mxCell>
        <mxCell id="_SNrM67lIP2ubuZ2T2kI-19" value="基模回答" style="whiteSpace=wrap;html=1;rounded=0;" vertex="1" parent="1">
          <mxGeometry x="410" y="627" width="120" height="60" as="geometry" />
        </mxCell>
        <mxCell id="_SNrM67lIP2ubuZ2T2kI-20" value="" style="rhombus;whiteSpace=wrap;html=1;rounded=0;" vertex="1" parent="1">
          <mxGeometry x="110" y="237" width="80" height="80" as="geometry" />
        </mxCell>
        <mxCell id="_SNrM67lIP2ubuZ2T2kI-21" value="精确的引导&lt;div&gt;非精确的：&lt;/div&gt;&lt;div&gt;&lt;b&gt;&lt;font style=&quot;color: rgb(255, 51, 51);&quot;&gt;表&lt;/font&gt;&lt;/b&gt;&lt;/div&gt;" style="text;html=1;align=center;verticalAlign=middle;resizable=0;points=[];autosize=1;strokeColor=none;fillColor=none;" vertex="1" parent="1">
          <mxGeometry x="250" y="287" width="80" height="60" as="geometry" />
        </mxCell>
        <mxCell id="_SNrM67lIP2ubuZ2T2kI-22" value="" style="edgeStyle=orthogonalEdgeStyle;rounded=0;orthogonalLoop=1;jettySize=auto;html=1;" edge="1" parent="1" source="_SNrM67lIP2ubuZ2T2kI-23" target="_SNrM67lIP2ubuZ2T2kI-25">
          <mxGeometry relative="1" as="geometry" />
        </mxCell>
        <mxCell id="_SNrM67lIP2ubuZ2T2kI-23" value="&lt;b&gt;&lt;font style=&quot;font-size: 17px;&quot;&gt;ask-data-chat-web&lt;/font&gt;&lt;/b&gt;" style="rounded=0;whiteSpace=wrap;html=1;" vertex="1" parent="1">
          <mxGeometry x="204" y="777" width="166" height="90" as="geometry" />
        </mxCell>
        <mxCell id="_SNrM67lIP2ubuZ2T2kI-24" value="" style="edgeStyle=orthogonalEdgeStyle;rounded=0;orthogonalLoop=1;jettySize=auto;html=1;" edge="1" parent="1" source="_SNrM67lIP2ubuZ2T2kI-25" target="_SNrM67lIP2ubuZ2T2kI-27">
          <mxGeometry relative="1" as="geometry" />
        </mxCell>
        <mxCell id="_SNrM67lIP2ubuZ2T2kI-25" value="&lt;b&gt;&lt;font style=&quot;font-size: 17px;&quot;&gt;agent-mesh:&lt;/font&gt;&lt;/b&gt;&lt;div&gt;&lt;b&gt;&lt;font style=&quot;font-size: 17px;&quot;&gt;ask-data-agents&lt;/font&gt;&lt;/b&gt;&lt;/div&gt;" style="rounded=0;whiteSpace=wrap;html=1;" vertex="1" parent="1">
          <mxGeometry x="204" y="947" width="166" height="90" as="geometry" />
        </mxCell>
        <mxCell id="_SNrM67lIP2ubuZ2T2kI-26" value="&lt;font style=&quot;font-size: 17px;&quot;&gt;1. 接收问题&lt;/font&gt;&lt;div&gt;&lt;font style=&quot;font-size: 17px;&quot;&gt;2. 掉&lt;font style=&quot;color: rgb(255, 51, 51);&quot;&gt;mcp&lt;/font&gt; 问题理解&lt;/font&gt;&lt;/div&gt;&lt;div&gt;&lt;font style=&quot;font-size: 17px;&quot;&gt;2.1. 存在引导：进行引导 &lt;font style=&quot;color: rgb(255, 51, 51);&quot;&gt;mcp&lt;/font&gt;&lt;/font&gt;&lt;/div&gt;&lt;div&gt;&lt;font style=&quot;font-size: 17px;&quot;&gt;3.1. 走思维链agent&lt;/font&gt;&lt;/div&gt;&lt;div&gt;&lt;font style=&quot;font-size: 17px;&quot;&gt;3.2 调用问指标/数据集 &lt;font style=&quot;color: rgb(255, 51, 51);&quot;&gt;mcp&lt;/font&gt;&lt;/font&gt;&lt;/div&gt;&lt;div&gt;&lt;font style=&quot;font-size: 17px;&quot;&gt;4.1 总结agent&amp;nbsp;&lt;/font&gt;&lt;/div&gt;&lt;div&gt;&lt;font style=&quot;font-size: 17px;&quot;&gt;4.2 图表推荐agent 数据集走的&lt;font style=&quot;color: rgb(255, 102, 102);&quot;&gt;mcp&lt;/font&gt;&lt;/font&gt;&lt;/div&gt;&lt;div&gt;&lt;font style=&quot;font-size: 17px;&quot;&gt;4.3 问题推荐agent&amp;nbsp;&lt;/font&gt;&lt;/div&gt;" style="text;html=1;align=left;verticalAlign=middle;resizable=0;points=[];autosize=1;strokeColor=none;fillColor=none;" vertex="1" parent="1">
          <mxGeometry x="520" y="977" width="280" height="180" as="geometry" />
        </mxCell>
        <mxCell id="_SNrM67lIP2ubuZ2T2kI-27" value="&lt;span style=&quot;font-size: 17px;&quot;&gt;&lt;b&gt;ask-data-mcp&lt;/b&gt;&lt;/span&gt;" style="rounded=0;whiteSpace=wrap;html=1;" vertex="1" parent="1">
          <mxGeometry x="204" y="1117" width="166" height="90" as="geometry" />
        </mxCell>
        <mxCell id="_SNrM67lIP2ubuZ2T2kI-28" style="edgeStyle=orthogonalEdgeStyle;rounded=0;orthogonalLoop=1;jettySize=auto;html=1;entryX=1.004;entryY=0.568;entryDx=0;entryDy=0;entryPerimeter=0;" edge="1" parent="1" source="_SNrM67lIP2ubuZ2T2kI-26" target="_SNrM67lIP2ubuZ2T2kI-25">
          <mxGeometry relative="1" as="geometry" />
        </mxCell>
        <mxCell id="_SNrM67lIP2ubuZ2T2kI-29" style="edgeStyle=orthogonalEdgeStyle;rounded=0;orthogonalLoop=1;jettySize=auto;html=1;entryX=0.987;entryY=0.441;entryDx=0;entryDy=0;entryPerimeter=0;" edge="1" parent="1" source="_SNrM67lIP2ubuZ2T2kI-26" target="_SNrM67lIP2ubuZ2T2kI-27">
          <mxGeometry relative="1" as="geometry" />
        </mxCell>
        <mxCell id="_SNrM67lIP2ubuZ2T2kI-30" value="&lt;font style=&quot;font-size: 17px;&quot;&gt;1. 选择应用&lt;/font&gt;&lt;div&gt;&lt;font style=&quot;font-size: 17px;&quot;&gt;2. 开启会话&lt;/font&gt;&lt;/div&gt;&lt;div&gt;&lt;font style=&quot;font-size: 17px;&quot;&gt;3. 问问题&lt;/font&gt;&lt;/div&gt;" style="text;html=1;align=left;verticalAlign=middle;resizable=0;points=[];autosize=1;strokeColor=none;fillColor=none;" vertex="1" parent="1">
          <mxGeometry x="445" y="777" width="110" height="70" as="geometry" />
        </mxCell>
        <mxCell id="_SNrM67lIP2ubuZ2T2kI-31" style="edgeStyle=orthogonalEdgeStyle;rounded=0;orthogonalLoop=1;jettySize=auto;html=1;entryX=0.996;entryY=0.394;entryDx=0;entryDy=0;entryPerimeter=0;" edge="1" parent="1" source="_SNrM67lIP2ubuZ2T2kI-30" target="_SNrM67lIP2ubuZ2T2kI-23">
          <mxGeometry relative="1" as="geometry" />
        </mxCell>
      </root>
    </mxGraphModel>
  </diagram>
</mxfile>
